<svg width="60" height="40" viewBox="0 0 60 40" fill="none" xmlns="http://www.w3.org/2000/svg">
<g opacity="0.4">
<path d="M10.7092 9.44688C10.7092 6.19785 11.4125 3.07343 12.7127 0.142879C5.14563 5.21612 0.344336 12.4583 0.146488 20.517L-2.09808e-05 20.6818L-2.09808e-05 40.0005H24.9274L24.9274 14.9964H11.4089C10.951 13.198 10.7092 11.3444 10.7092 9.44688Z" fill="#455A64"/>
<path d="M46.3787 14.9963C45.8952 13.1539 45.6425 11.2524 45.6425 9.30786C45.6425 6.05859 46.3494 2.93053 47.6496 -1.52588e-05C39.984 5.13922 35.1566 12.4983 35.0761 20.6816H35.0725V20.7806C35.0725 20.8209 35.0725 20.8575 35.0725 20.8978C35.0725 20.9381 35.0725 20.9785 35.0725 21.0187V40.0005H59.9999V14.9964H46.3787V14.9963Z" fill="#455A64"/>
</g>
</svg>
