<svg width="60" height="40" viewBox="0 0 60 40" fill="none" xmlns="http://www.w3.org/2000/svg">
<g opacity="0.4">
<path d="M49.2911 30.5536C49.2911 33.8026 48.5879 36.9271 47.2877 39.8576C54.8547 34.7844 59.656 27.5422 59.8539 19.4835L60.0004 19.3187V0L35.073 0V25.0041H48.5915C49.0493 26.8025 49.2911 28.6561 49.2911 30.5536Z" fill="#455A64"/>
<path d="M13.6212 25.0042C14.1047 26.8466 14.3574 28.748 14.3574 30.6926C14.3574 33.9419 13.6505 37.07 12.3503 40.0005C20.0159 34.8613 24.8432 27.5022 24.9238 19.3188H24.9274V19.2199C24.9274 19.1796 24.9274 19.143 24.9274 19.1027C24.9274 19.0624 24.9274 19.022 24.9274 18.9818V0L0 0L0 25.0041H13.6212V25.0042Z" fill="#455A64"/>
</g>
</svg>
